<svg xmlns="http://www.w3.org/2000/svg" width="112" height="112" viewBox="0 0 112 112" fill="none">
<circle cx="56" cy="56" r="56" fill="url(#paint0_linear_619_8)"/>
<circle cx="56" cy="56" r="50" fill="url(#paint1_linear_619_8)"/>
<path d="M64.2769 18.1792L64.718 17.6872L65.0716 18.2454L81.5824 44.3065L81.6234 44.3712L81.6431 44.4453C81.8701 45.2964 81.4529 46.1461 80.8308 46.8362C80.1944 47.542 79.2573 48.1853 78.1905 48.6712C76.0741 49.6351 73.2693 50.0539 71.0552 48.9026C69.9068 48.3054 68.8042 46.8965 67.7898 45.1772C66.7603 43.4321 65.7682 41.2718 64.8735 39.0553C63.0835 34.6211 61.6607 29.9058 61.0897 27.7032C60.5968 25.802 61.0585 23.8049 61.7865 22.1224C62.5172 20.4338 63.5438 18.9968 64.2769 18.1792Z" fill="#F5F4F4" stroke="black"/>
<mask id="mask0_619_8" style="mask-type:alpha" maskUnits="userSpaceOnUse" x="61" y="18" width="21" height="32">
<path d="M64.6492 18.5129L81.16 44.5741C81.8075 47.0021 75.3327 50.5633 71.2859 48.459C67.2391 46.3547 62.7068 31.9482 61.5737 27.5777C60.6672 24.0813 63.2463 20.0777 64.6492 18.5129Z" fill="#F5F4F4"/>
</mask>
<g mask="url(#mask0_619_8)">
<path d="M71.5926 31.0776C68.6684 26.1411 64.6481 23.1315 63.0036 22.2437L61.2138 26.0667L63.5992 34.5614L70.7136 49.6513L80.6667 48.5823C78.8604 44.8043 74.5168 36.0141 71.5926 31.0776Z" fill="url(#paint2_linear_619_8)"/>
<path d="M66.354 31.3954C63.7499 25.7751 62.6476 19.1709 60.9713 18.351L57.6438 29.8097L59.267 39.9324L65.2571 57.4238L75.491 51.4839C73.9642 47.1089 68.9581 37.0157 66.354 31.3954Z" fill="url(#paint3_linear_619_8)"/>
</g>
<path d="M34.9057 70.2916L35.768 70.7804C34.9383 72.4076 34.0795 74.6712 35.5696 77.1409C37.0943 79.668 41.149 82.5468 50.6497 85.0867C65.5627 89.0735 76.6889 84.6693 80.2713 83.2513C80.3104 83.2358 80.3486 83.2207 80.386 83.2059L81.8826 82.614L80.9777 83.941C80.1525 85.1512 78.6423 86.3963 76.6568 87.5239C74.6613 88.6571 72.1481 89.693 69.273 90.4663C63.5232 92.0129 56.293 92.5179 48.8146 90.6188C33.3904 86.7018 31.4452 75.4131 34.9057 70.2916Z" fill="url(#paint4_linear_619_8)" stroke="black"/>
<path d="M34.6514 71.6003L35.5519 69.9612L35.593 71.8105C35.6103 72.5871 36.116 73.5551 37.2418 74.6713C38.3539 75.774 40.0066 76.9567 42.1626 78.164C46.4716 80.5767 52.72 83.0478 60.4755 85.1607L61.6234 85.4735L60.5772 86.0713C59.7236 86.5591 58.5768 86.8659 57.2714 87.0263C55.9589 87.1876 54.4511 87.2049 52.8513 87.0896C49.6529 86.8591 46.0463 86.0958 42.8313 84.8532C39.6273 83.6147 36.7531 81.8773 35.0864 79.6612C34.2481 78.5464 33.7087 77.301 33.6001 75.9356C33.4914 74.5684 33.8177 73.1177 34.6514 71.6003Z" fill="url(#paint5_linear_619_8)" stroke="black"/>
<path d="M94.4055 59.3089L94.6157 59.447L94.6301 59.698C94.9056 64.4923 93.5794 71.6553 88.5447 77.432C83.4919 83.2293 74.7696 87.5562 60.4057 86.7727C51.4165 86.2824 44.762 83.6229 40.0612 79.7073C35.3609 75.7921 32.6485 70.6496 31.4953 65.2539C30.3429 59.8623 30.7448 54.2112 32.2753 49.25C33.8043 44.2935 36.4724 39.9868 39.8915 37.3182C46.6529 32.041 56.4053 29.9052 65.478 32.3122C74.5344 34.715 82.8823 41.6348 86.9177 54.3888L94.4055 59.3089Z" fill="url(#paint6_linear_619_8)" stroke="black"/>
<path d="M70.5999 80.0001C76.3918 81.5447 81.4532 72.9601 81.1598 69.4401C79.3998 69.7921 76.1732 69.5867 75.4398 69.4401C73.6799 69.0881 63.9999 78.24 70.5999 80.0001Z" fill="#FF969C" stroke="black"/>
<path d="M78.0798 69.8801C77.9331 70.7601 76.0558 72.7841 74.9998 73.8401" stroke="black"/>
<path d="M89.5198 66.3599C85.2664 68.8532 75.7038 72.3439 69.7198 66.3599" stroke="black"/>
<path d="M89.0278 66.674C90.9094 66.5564 92.4047 65.4533 93.4048 64.0714C94.4128 62.6788 94.8483 61.1005 94.7171 60.1358C94.6164 59.665 94.1491 59.164 92.6501 59.0103C91.1563 58.8571 88.8341 59.0843 85.4518 59.8896C83.8234 60.2773 83.0601 60.9236 82.7769 61.5513C82.4966 62.1724 82.6134 62.9404 83.1274 63.7481C84.1672 65.3821 86.6278 66.824 89.0278 66.674Z" fill="black" stroke="black"/>
<path d="M44.9222 49.8527C48.1931 39.6549 63.3215 36.3635 71.9546 37.3887C71.9546 37.3887 79.8862 38.3599 84.5804 44.8347C89.2747 51.3095 87.656 54.7088 87.656 54.7088C69.6884 56.6513 72.9258 57.7844 65.4797 64.0973C58.0337 70.4102 40.053 65.0333 44.9222 49.8527Z" fill="url(#paint7_linear_619_8)" stroke="black"/>
<path d="M48.448 49.2061C51.3377 40.6833 64.703 37.9325 72.33 38.7893C72.33 38.7893 79.3373 39.601 83.4845 45.0123C87.6316 50.4237 86.2016 53.2646 86.2016 53.2646C70.3279 54.8881 73.188 55.835 66.6097 61.1111C60.0315 66.3872 44.1462 61.8934 48.448 49.2061Z" fill="url(#paint8_linear_619_8)" stroke="black" stroke-width="0.5"/>
<path fill-rule="evenodd" clip-rule="evenodd" d="M75.9025 40.557L79.2681 39.5198L73.4029 47.5957L83.8511 51.0836L80.3219 52.1711L72.0785 49.4193L67.1273 56.2367L63.7617 57.2739L69.9759 48.7174L60.11 45.4239L63.6392 44.3364L71.3003 46.8938L75.9025 40.557Z" fill="black"/>
<path d="M27.4547 61.5074C27.4547 67.2492 31.1038 71.6909 35.3719 71.6909C39.64 71.6909 43.2892 67.2492 43.2892 61.5074C43.2892 55.7656 39.64 51.324 35.3719 51.324C31.1038 51.324 27.4547 55.7656 27.4547 61.5074Z" fill="url(#paint9_linear_619_8)" stroke="black"/>
<path d="M27.3012 60.2564C27.3012 62.6999 28.0443 64.9024 29.2339 66.4884C30.4233 68.0744 32.0475 69.032 33.8204 69.032C35.5934 69.032 37.2175 68.0744 38.407 66.4884C39.5965 64.9024 40.3397 62.6999 40.3397 60.2564C40.3397 57.8129 39.5965 55.6103 38.407 54.0243C37.2175 52.4383 35.5934 51.4807 33.8204 51.4807C32.0475 51.4807 30.4233 52.4383 29.2339 54.0243C28.0443 55.6103 27.3012 57.8129 27.3012 60.2564Z" fill="#F1EACC" stroke="black" stroke-width="0.5"/>
<path d="M28.7291 59.1872C28.7291 61.7495 30.5246 63.7052 32.5996 63.7052C34.6746 63.7052 36.4701 61.7495 36.4701 59.1872C36.4701 56.6249 34.6746 54.6692 32.5996 54.6692C30.5246 54.6692 28.7291 56.6249 28.7291 59.1872Z" fill="#F2EACD" stroke="#FFC500"/>
<path d="M16.6643 52.6428L16.6283 51.9831L17.273 52.1277L36.3447 56.4062L36.4195 56.4229L36.4858 56.4613C37.0489 56.7873 37.2525 57.4341 37.2842 58.0454C37.3169 58.6779 37.1787 59.4114 36.9121 60.124C36.3855 61.5315 35.2855 63.0349 33.7028 63.5347C32.8669 63.7987 31.6966 63.6476 30.47 63.3313C29.2145 63.0075 27.793 62.4803 26.3951 61.8865C23.5983 60.6983 20.8414 59.2195 19.5931 58.4853C18.4707 57.825 17.7625 56.6806 17.3277 55.5825C16.8905 54.4782 16.7031 53.3549 16.6643 52.6428Z" fill="#F5F4F4" stroke="black"/>
<mask id="mask1_619_8" style="mask-type:alpha" maskUnits="userSpaceOnUse" x="17" y="52" width="20" height="12">
<path d="M17.1635 52.6156L36.2353 56.894C37.6131 57.6917 36.3078 62.1877 33.5522 63.0579C30.7966 63.9281 22.3122 59.5046 19.8466 58.0543C17.8742 56.894 17.236 53.945 17.1635 52.6156Z" fill="#F5F4F4"/>
</mask>
<g mask="url(#mask1_619_8)">
<path d="M25.903 55.1341C22.3815 54.2326 19.2322 54.6853 18.0978 55.0244L19.0086 57.5388L23.8828 60.2757L33.8301 63.8486L37.81 58.9109C35.3083 58.0276 29.4245 56.0355 25.903 55.1341Z" fill="url(#paint10_linear_619_8)"/>
<path d="M23.6986 57.6232C20.0142 56.272 16.5617 53.8072 15.4434 54.1908L19.0861 60.8149L24.3482 64.6226L34.8676 69.775L36.7913 62.5293C34.1473 61.2534 27.383 58.9744 23.6986 57.6232Z" fill="url(#paint11_linear_619_8)"/>
</g>
<path d="M20.2578 29.239L20.6988 28.747L21.0524 29.3052L37.5632 55.3663L37.6042 55.431L37.6239 55.5051C37.8509 56.3562 37.4337 57.2059 36.8116 57.896C36.1753 58.6018 35.2382 59.2451 34.1714 59.731C32.0549 60.695 29.2501 61.1137 27.036 59.9624C25.8876 59.3652 24.785 57.9564 23.7707 56.237C22.7411 54.4919 21.7491 52.3316 20.8543 50.1151C19.0644 45.6809 17.6416 40.9656 17.0705 38.763C16.5776 36.8618 17.0393 34.8647 17.7674 33.1822C18.498 31.4936 19.5247 30.0566 20.2578 29.239Z" fill="#F5F4F4" stroke="black"/>
<mask id="mask2_619_8" style="mask-type:alpha" maskUnits="userSpaceOnUse" x="17" y="29" width="21" height="32">
<path d="M20.63 29.5728L37.1408 55.6339C37.7883 58.062 31.3135 61.6231 27.2667 59.5188C23.22 57.4145 18.6876 43.008 17.5545 38.6375C16.648 35.1411 19.2272 31.1375 20.63 29.5728Z" fill="#F5F4F4"/>
</mask>
<g mask="url(#mask2_619_8)">
<path d="M27.5733 42.1377C24.6491 37.2012 20.6289 34.1916 18.9843 33.3038L17.1946 37.1267L19.58 45.6214L26.6944 60.7113L36.6475 59.6424C34.8412 55.8643 30.4976 47.0741 27.5733 42.1377Z" fill="url(#paint12_linear_619_8)"/>
<path d="M22.3349 42.4555C19.7308 36.8352 18.6284 30.231 16.9521 29.411L13.6246 40.8697L15.2478 50.9925L21.2379 68.4838L31.4718 62.5439C29.945 58.1689 24.939 48.0757 22.3349 42.4555Z" fill="url(#paint13_linear_619_8)"/>
</g>
<defs>
<linearGradient id="paint0_linear_619_8" x1="56" y1="0" x2="56" y2="112" gradientUnits="userSpaceOnUse">
<stop stop-color="#F5E853"/>
<stop offset="1" stop-color="#DFBD55"/>
</linearGradient>
<linearGradient id="paint1_linear_619_8" x1="56" y1="6" x2="56" y2="106" gradientUnits="userSpaceOnUse">
<stop stop-color="#DCAE2D"/>
<stop offset="1" stop-color="#E0B733"/>
</linearGradient>
<linearGradient id="paint2_linear_619_8" x1="62.4422" y1="23.4428" x2="71.6815" y2="49.9052" gradientUnits="userSpaceOnUse">
<stop stop-color="#FFF9E3"/>
<stop offset="1" stop-color="#EAE2BF"/>
</linearGradient>
<linearGradient id="paint3_linear_619_8" x1="59.2646" y1="26.3477" x2="73.8874" y2="53.4683" gradientUnits="userSpaceOnUse">
<stop stop-color="#EED47F"/>
<stop offset="1" stop-color="#CCB461"/>
</linearGradient>
<linearGradient id="paint4_linear_619_8" x1="31.6164" y1="73.7086" x2="70.9973" y2="92.6351" gradientUnits="userSpaceOnUse">
<stop stop-color="#F5CF62"/>
<stop offset="0.182292" stop-color="white"/>
<stop offset="0.286458" stop-color="white"/>
<stop offset="0.432292" stop-color="#E7B116"/>
<stop offset="1" stop-color="#FFE59A"/>
</linearGradient>
<linearGradient id="paint5_linear_619_8" x1="34.3305" y1="76.2096" x2="59.115" y2="81.2863" gradientUnits="userSpaceOnUse">
<stop stop-color="#E7B015"/>
<stop offset="0.182292" stop-color="white"/>
<stop offset="0.286458" stop-color="white"/>
<stop offset="0.432292" stop-color="#FFE496"/>
<stop offset="1" stop-color="#F9E077"/>
</linearGradient>
<linearGradient id="paint6_linear_619_8" x1="97.5" y1="38.5" x2="76.7299" y2="91.0225" gradientUnits="userSpaceOnUse">
<stop stop-color="#F2BF27"/>
<stop offset="0.182292" stop-color="white"/>
<stop offset="0.286458" stop-color="#FFF6D7"/>
<stop offset="0.432292" stop-color="#FBD866"/>
<stop offset="1" stop-color="#E3A908"/>
</linearGradient>
<linearGradient id="paint7_linear_619_8" x1="74.1512" y1="27.8295" x2="30.489" y2="32.9655" gradientUnits="userSpaceOnUse">
<stop stop-color="#F9DF72"/>
<stop offset="1" stop-color="#FFFFB3"/>
</linearGradient>
<linearGradient id="paint8_linear_619_8" x1="74.2707" y1="30.8001" x2="35.7586" y2="35.5889" gradientUnits="userSpaceOnUse">
<stop stop-color="#FFF1B9"/>
<stop offset="1" stop-color="#F5D650"/>
</linearGradient>
<linearGradient id="paint9_linear_619_8" x1="31.5342" y1="52.9867" x2="33.6767" y2="70.2584" gradientUnits="userSpaceOnUse">
<stop stop-color="#232324"/>
<stop offset="0.202682" stop-color="#CAAF40"/>
<stop offset="0.302083" stop-color="white"/>
<stop offset="0.421875" stop-color="#C9AF3F"/>
<stop offset="0.614583" stop-color="#C2C6CE"/>
<stop offset="0.729167" stop-color="white"/>
<stop offset="0.854167" stop-color="#CBB041"/>
<stop offset="1" stop-color="#BAB390"/>
</linearGradient>
<linearGradient id="paint10_linear_619_8" x1="18.3834" y1="55.813" x2="34.3774" y2="63.5288" gradientUnits="userSpaceOnUse">
<stop stop-color="#FFF9E3"/>
<stop offset="1" stop-color="#EAE2BF"/>
</linearGradient>
<linearGradient id="paint11_linear_619_8" x1="18.2613" y1="58.5379" x2="36.9619" y2="64.1367" gradientUnits="userSpaceOnUse">
<stop stop-color="#EED47F"/>
<stop offset="1" stop-color="#CCB461"/>
</linearGradient>
<linearGradient id="paint12_linear_619_8" x1="18.423" y1="34.5028" x2="27.6623" y2="60.9652" gradientUnits="userSpaceOnUse">
<stop stop-color="#FFF9E3"/>
<stop offset="1" stop-color="#EAE2BF"/>
</linearGradient>
<linearGradient id="paint13_linear_619_8" x1="15.2454" y1="37.4078" x2="29.8683" y2="64.5284" gradientUnits="userSpaceOnUse">
<stop stop-color="#EED47F"/>
<stop offset="1" stop-color="#CCB461"/>
</linearGradient>
</defs>
</svg>