<svg width="40" height="40" viewBox="0 0 40 40" fill="none" xmlns="http://www.w3.org/2000/svg">
<path d="M15.2486 2.92148L14.9081 2.57031L14.6315 2.97383L9.55671 10.3791L9.52022 10.4324L9.50233 10.4944C9.39149 10.8786 9.60551 11.2167 9.81563 11.4322C10.041 11.6633 10.3599 11.8623 10.7078 12.0088C11.3916 12.2967 12.3292 12.4378 13.0949 12.0697C13.5146 11.8679 13.8857 11.4137 14.201 10.9196C14.5277 10.4076 14.8389 9.78002 15.1166 9.14398C15.6724 7.87115 16.1137 6.51953 16.292 5.88372C16.4683 5.25493 16.2987 4.61676 16.0626 4.11244C15.824 3.60257 15.4907 3.17103 15.2486 2.92148Z" fill="#F5F4F4" stroke="black" stroke-width="0.8"/>
<mask id="mask0_412_975" style="mask-type:alpha" maskUnits="userSpaceOnUse" x="9" y="3" width="7" height="9">
<path d="M14.9615 3.19995L9.88666 10.6053C9.68765 11.2952 11.6778 12.3071 12.9216 11.7092C14.1654 11.1112 15.5585 7.0176 15.9068 5.77571C16.1854 4.7822 15.3927 3.64458 14.9615 3.19995Z" fill="#F5F4F4"/>
</mask>
<g mask="url(#mask0_412_975)">
<path d="M12.8274 6.77019C13.7262 5.36748 14.9619 4.5123 15.4674 4.26004L16.0175 5.34633L15.2843 7.76011L13.0976 12.0479L10.0384 11.7442C10.5935 10.6706 11.9286 8.1729 12.8274 6.77019Z" fill="url(#paint0_linear_412_975)"/>
<path d="M14.4375 6.86039C15.2379 5.26338 15.5767 3.38678 16.0919 3.1538L17.1147 6.4098L16.6158 9.2862L14.7746 14.2564L11.6291 12.5686C12.0984 11.3254 13.6371 8.45739 14.4375 6.86039Z" fill="url(#paint1_linear_412_975)"/>
</g>
<path d="M28.1189 26.169L27.9465 26.2667C28.3282 27.0154 28.7454 28.099 28.0329 29.2799C27.3134 30.4724 25.428 31.7914 21.1039 32.9474C14.2843 34.7705 9.19422 32.7557 7.55858 32.1083C7.54082 32.1012 7.52348 32.0944 7.50654 32.0877L7.20722 31.9693L7.38819 32.2347C8.09342 33.269 9.47376 34.585 11.8004 35.3566C14.1269 36.1281 17.3932 36.3532 21.8683 35.2167C28.8252 33.45 29.6264 28.4 28.1189 26.169Z" fill="url(#paint2_linear_412_975)" stroke="black" stroke-width="0.2"/>
<path d="M28.2311 26.7595L28.0399 26.7958C28.0309 27.2015 27.7861 27.7045 27.2921 28.268C26.8005 28.8287 26.0725 29.4374 25.1219 30.0538C23.2211 31.2863 20.4407 32.5425 16.9118 33.504L16.6822 33.5665L16.8915 33.6861C17.2584 33.8958 17.7516 34.0275 18.3219 34.0907C18.8935 34.154 19.5491 34.1493 20.2456 34.0813C21.6383 33.9454 23.2025 33.556 24.5984 32.9437C25.9927 32.3322 27.2289 31.494 27.9537 30.4544C28.6826 29.4088 28.8914 28.1625 28.2311 26.7595Z" fill="url(#paint3_linear_412_975)" stroke="black" stroke-width="0.2"/>
<path d="M1.0844 20.4506L0.916259 20.5611L0.904716 20.762C0.777487 22.9757 1.38858 26.2793 3.71305 28.9463C6.05188 31.6298 10.0728 33.6094 16.6431 33.251C20.759 33.0265 23.8214 31.8076 25.9917 29.9997C28.1618 28.1921 29.4125 25.8186 29.9437 23.3334C30.4742 20.8515 30.2889 18.2528 29.5853 15.9718C28.8828 13.6947 27.6536 11.7032 26.0646 10.4631C22.9482 8.03073 18.4594 7.04903 14.2838 8.15684C10.1215 9.26114 6.29505 12.4342 4.43676 18.2479L1.0844 20.4506Z" fill="url(#paint4_linear_412_975)" stroke="black" stroke-width="0.8"/>
<path d="M12.0001 30C9.3674 30.7021 7.06677 26.8 7.2001 25.2C8.00011 25.36 9.46678 25.2667 9.80011 25.2C10.6001 25.0401 15.0001 29.2 12.0001 30Z" fill="#FF969C" stroke="black" stroke-width="0.4"/>
<path d="M8.6001 25.4C8.66676 25.8 9.5201 26.72 10.0001 27.2" stroke="black" stroke-width="0.4"/>
<path d="M3.3999 23.8C5.33324 24.9334 9.6799 26.52 12.3999 23.8" stroke="black" stroke-width="0.4"/>
<path d="M3.61578 24.0697C2.71206 24.0132 2.00097 23.4835 1.53105 22.8343C1.05949 22.1827 0.844698 21.4302 0.912195 20.949C0.973551 20.6493 1.26206 20.4046 1.96425 20.3325C2.66474 20.2607 3.73693 20.3679 5.27866 20.735C6.03698 20.9156 6.42912 21.2251 6.58105 21.5618C6.73238 21.8972 6.6601 22.2929 6.41309 22.681C5.9167 23.4611 4.75504 24.1409 3.61578 24.0697Z" fill="black" stroke="black" stroke-width="0.2"/>
<path d="M23.6715 16.2966C22.1848 11.6613 15.3082 10.1652 11.3841 10.6312C11.3841 10.6312 7.77881 11.0726 5.64506 14.0157C3.51132 16.9588 4.24709 18.504 4.24709 18.504C12.4142 19.3869 10.9426 19.9019 14.3272 22.7715C17.7118 25.641 25.8848 23.1969 23.6715 16.2966Z" fill="url(#paint5_linear_412_975)" stroke="black" stroke-width="0.8"/>
<path d="M22.0691 16.0027C20.7556 12.1287 14.6804 10.8783 11.2136 11.2678C11.2136 11.2678 8.02847 11.6367 6.14339 14.0964C4.25832 16.5561 4.90834 17.8475 4.90834 17.8475C12.1237 18.5854 10.8236 19.0158 13.8137 21.414C16.8039 23.8122 24.0244 21.7696 22.0691 16.0027Z" fill="url(#paint6_linear_412_975)"/>
<path d="M22.0691 16.0027C20.7556 12.1287 14.6804 10.8783 11.2136 11.2678C11.2136 11.2678 8.02847 11.6367 6.14339 14.0964C4.25832 16.5561 4.90834 17.8475 4.90834 17.8475C12.1237 18.5854 10.8236 19.0158 13.8137 21.414C16.8039 23.8122 24.0244 21.7696 22.0691 16.0027Z" fill="white" fill-opacity="0.4"/>
<path d="M22.0691 16.0027C20.7556 12.1287 14.6804 10.8783 11.2136 11.2678C11.2136 11.2678 8.02847 11.6367 6.14339 14.0964C4.25832 16.5561 4.90834 17.8475 4.90834 17.8475C12.1237 18.5854 10.8236 19.0158 13.8137 21.414C16.8039 23.8122 24.0244 21.7696 22.0691 16.0027Z" stroke="black" stroke-width="0.2"/>
<path fill-rule="evenodd" clip-rule="evenodd" d="M9.58984 12.0713L8.06001 11.5999L10.7259 15.2706L5.97684 16.856L7.58103 17.3503L11.3279 16.0995L13.5786 19.1985L15.1084 19.6699L12.2836 15.7805L16.7683 14.2834L15.1641 13.7891L11.6816 14.9516L9.58984 12.0713Z" fill="black"/>
<path d="M31.4388 21.5943C31.4388 24.1494 29.8213 26.0504 28.0128 26.0504C26.2043 26.0504 24.5868 24.1494 24.5868 21.5943C24.5868 19.0391 26.2043 17.1382 28.0128 17.1382C29.8213 17.1382 31.4388 19.0391 31.4388 21.5943Z" fill="url(#paint7_linear_412_975)" stroke="black" stroke-width="0.8"/>
<path d="M31.6027 21.2264C31.6027 23.1773 30.2501 24.7317 28.6125 24.7317C26.9749 24.7317 25.6222 23.1773 25.6222 21.2264C25.6222 19.2755 26.9749 17.7211 28.6125 17.7211C30.2501 17.7211 31.6027 19.2755 31.6027 21.2264Z" fill="#C1C8CF" stroke="black" stroke-width="0.2"/>
<path d="M31.0593 20.5396C31.0593 21.7157 30.2344 22.6205 29.2727 22.6205C28.3111 22.6205 27.4861 21.7157 27.4861 20.5396C27.4861 19.3635 28.3111 18.4587 29.2727 18.4587C30.2344 18.4587 31.0593 19.3635 31.0593 20.5396Z" fill="#707070" stroke="#D1FFFF" stroke-width="0.4"/>
<path d="M35.0112 4.69868L34.6584 4.30512L34.3755 4.75163L26.8706 16.5976L26.8378 16.6494L26.822 16.7086C26.6963 17.1798 26.9322 17.6254 27.2299 17.9556C27.5388 18.2983 27.9862 18.6033 28.4866 18.8312C29.4738 19.2808 30.809 19.49 31.8813 18.9324C32.4505 18.6364 32.9726 17.9567 33.4346 17.1736C33.9088 16.3699 34.3634 15.3791 34.7716 14.3678C35.5885 12.3442 36.2374 10.1937 36.4986 9.18642C36.7363 8.26941 36.5114 7.31947 36.1731 6.53776C35.8328 5.75119 35.3554 5.08253 35.0112 4.69868Z" fill="#F5F4F4" stroke="black" stroke-width="0.8"/>
<mask id="mask1_412_975" style="mask-type:alpha" maskUnits="userSpaceOnUse" x="27" y="4" width="10" height="15">
<path d="M34.7134 4.9657L27.2085 16.8117C26.9142 17.9153 29.8573 19.534 31.6967 18.5775C33.5361 17.621 35.5963 11.0726 36.1114 9.08604C36.5234 7.49676 35.3511 5.67695 34.7134 4.9657Z" fill="#F5F4F4"/>
</mask>
<g mask="url(#mask1_412_975)">
<path d="M31.5572 10.6769C32.8864 8.43307 34.7138 7.06506 35.4613 6.66154L36.2749 8.39923L35.1906 12.2605L31.9568 19.1195L27.4326 18.6336C28.2537 16.9163 30.2281 12.9208 31.5572 10.6769Z" fill="url(#paint8_linear_412_975)"/>
<path d="M33.9384 10.8214C35.122 8.26669 35.6231 5.26476 36.3851 4.89207L37.8976 10.1006L37.1597 14.7018L34.437 22.6524L29.7852 19.9525C30.4792 17.9638 32.7547 13.376 33.9384 10.8214Z" fill="url(#paint9_linear_412_975)"/>
</g>
<path d="M39.1619 15.54L39.0759 15.0584L38.621 15.2384L30.2729 18.5401L30.2129 18.5638L30.1634 18.6052C29.8566 18.8618 29.845 19.2618 29.8987 19.5579C29.9564 19.8756 30.1094 20.2188 30.316 20.5349C30.7219 21.1559 31.4203 21.7971 32.261 21.9201C32.7218 21.9875 33.2834 21.8184 33.821 21.5851C34.3782 21.3434 34.9871 20.997 35.573 20.625C36.7455 19.8805 37.8671 19.0067 38.3705 18.5793C38.8683 18.1566 39.0845 17.5326 39.1708 16.9825C39.258 16.4264 39.223 15.8822 39.1619 15.54Z" fill="#F5F4F4" stroke="black" stroke-width="0.8"/>
<mask id="mask2_412_975" style="mask-type:alpha" maskUnits="userSpaceOnUse" x="30" y="15" width="9" height="7">
<path d="M38.7681 15.6103L30.42 18.9121C29.8692 19.3728 30.9533 21.3245 32.3189 21.5243C33.6844 21.7241 37.1284 19.1092 38.1116 18.2744C38.8981 17.6065 38.877 16.2201 38.7681 15.6103Z" fill="#F5F4F4"/>
</mask>
<g mask="url(#mask2_412_975)">
<path d="M35.0024 17.377C36.5319 16.7166 38.0345 16.6986 38.5947 16.7721L38.4433 17.9803L36.4858 19.5715L32.2753 21.9036L29.9088 19.9411C30.9694 19.3615 33.4729 18.0373 35.0024 17.377Z" fill="url(#paint10_linear_412_975)"/>
<path d="M36.2869 18.3521C37.8435 17.4757 39.1737 16.1093 39.7312 16.2043L38.7585 19.4756L36.7364 21.5813L32.4309 24.6723L30.7668 21.5141C31.851 20.7459 34.7304 19.2285 36.2869 18.3521Z" fill="url(#paint11_linear_412_975)"/>
</g>
<defs>
<linearGradient id="paint0_linear_412_975" x1="15.6399" y1="4.60074" x2="13.1739" y2="12.2407" gradientUnits="userSpaceOnUse">
<stop stop-color="#F3F5F5"/>
<stop offset="1" stop-color="#E1E2E3"/>
</linearGradient>
<linearGradient id="paint1_linear_412_975" x1="16.6165" y1="5.42608" x2="12.6452" y2="13.3933" gradientUnits="userSpaceOnUse">
<stop stop-color="#DCDEE1"/>
<stop offset="1" stop-color="#A9B1BA"/>
</linearGradient>
<linearGradient id="paint2_linear_412_975" x1="29.7198" y1="27.6531" x2="11.8194" y2="36.2561" gradientUnits="userSpaceOnUse">
<stop stop-color="#B9BECA"/>
<stop offset="0.182292" stop-color="white"/>
<stop offset="0.286458" stop-color="white"/>
<stop offset="0.432292" stop-color="#B6BCC8"/>
<stop offset="1" stop-color="#E0E3E9"/>
</linearGradient>
<linearGradient id="paint3_linear_412_975" x1="28.486" y1="28.79" x2="17.2203" y2="31.0976" gradientUnits="userSpaceOnUse">
<stop stop-color="#B9BECA"/>
<stop offset="0.182292" stop-color="white"/>
<stop offset="0.286458" stop-color="white"/>
<stop offset="0.432292" stop-color="#B6BCC8"/>
<stop offset="1" stop-color="#E0E3E9"/>
</linearGradient>
<linearGradient id="paint4_linear_412_975" x1="7.61399" y1="6.83613" x2="9.45217" y2="30.3231" gradientUnits="userSpaceOnUse">
<stop stop-color="#A0A5B1"/>
<stop offset="0.182292" stop-color="white"/>
<stop offset="0.286458" stop-color="white"/>
<stop offset="0.432292" stop-color="#9CA0A9"/>
<stop offset="1" stop-color="#D4D6DB"/>
</linearGradient>
<linearGradient id="paint5_linear_412_975" x1="10.3856" y1="6.28607" x2="30.2321" y2="8.62062" gradientUnits="userSpaceOnUse">
<stop stop-color="#DCFFFE"/>
<stop offset="1" stop-color="#FFFFB3"/>
</linearGradient>
<linearGradient id="paint6_linear_412_975" x1="10.3315" y1="7.63632" x2="27.837" y2="9.81304" gradientUnits="userSpaceOnUse">
<stop stop-color="#DCFFFE"/>
<stop offset="1" stop-color="#FFFFB3"/>
</linearGradient>
<linearGradient id="paint7_linear_412_975" x1="29.7572" y1="17.7212" x2="28.7834" y2="25.572" gradientUnits="userSpaceOnUse">
<stop stop-color="#232324"/>
<stop offset="0.202682"/>
<stop offset="0.302083" stop-color="white"/>
<stop offset="0.421875" stop-color="#B1B8C6"/>
<stop offset="0.614583" stop-color="#C2C6CE"/>
<stop offset="0.729167" stop-color="white"/>
<stop offset="0.854167" stop-color="#9D9794"/>
<stop offset="1" stop-color="#434385"/>
</linearGradient>
<linearGradient id="paint8_linear_412_975" x1="35.7165" y1="7.20655" x2="31.5168" y2="19.2349" gradientUnits="userSpaceOnUse">
<stop stop-color="#F3F5F5"/>
<stop offset="1" stop-color="#E1E2E3"/>
</linearGradient>
<linearGradient id="paint9_linear_412_975" x1="37.1608" y1="8.52695" x2="30.5141" y2="20.8545" gradientUnits="userSpaceOnUse">
<stop stop-color="#DCDEE1"/>
<stop offset="1" stop-color="#A9B1BA"/>
</linearGradient>
<linearGradient id="paint10_linear_412_975" x1="38.5472" y1="17.151" x2="32.2307" y2="22.1061" gradientUnits="userSpaceOnUse">
<stop stop-color="#F3F5F5"/>
<stop offset="1" stop-color="#E1E2E3"/>
</linearGradient>
<linearGradient id="paint11_linear_412_975" x1="38.8955" y1="18.3814" x2="31.1481" y2="22.766" gradientUnits="userSpaceOnUse">
<stop stop-color="#DCDEE1"/>
<stop offset="1" stop-color="#A9B1BA"/>
</linearGradient>
</defs>
</svg>
