<svg width="32" height="32" viewBox="0 0 32 32" fill="none" xmlns="http://www.w3.org/2000/svg">
<circle cx="16" cy="16" r="16" fill="white"/>
<mask id="mask0_412_1033" style="mask-type:alpha" maskUnits="userSpaceOnUse" x="0" y="0" width="32" height="32">
<circle cx="16" cy="16" r="16" fill="#EB1D1D"/>
</mask>
<g mask="url(#mask0_412_1033)">
<path d="M24.4653 12.6439C25.4121 10.9204 24.33 8.66663 24.33 8.66663C21.8953 8.66663 20.1369 10.2575 20.1369 10.2575C19.1901 9.72722 16.0791 9.72722 16.0791 9.72722C16.0791 9.72722 12.9681 9.72722 12.0213 10.2575C12.0213 10.2575 10.2629 8.66663 7.82819 8.66663C7.82819 8.66663 6.7461 10.9204 7.69292 12.6439C7.69292 12.6439 5.52876 14.6326 6.34032 18.875C7.10294 22.8616 10.6686 23.9129 12.9681 23.9129C12.9681 23.9129 12.0213 24.7083 12.1565 26.0341C12.1565 26.0341 10.8039 26.8295 9.45131 26.2992C8.0987 25.7689 7.42238 24.4432 7.42238 24.4432C7.42238 24.4432 6.06978 22.7197 4.71717 23.3825C4.71717 23.3825 4.31139 23.7803 5.79927 24.4432C5.79927 24.4432 6.88136 26.0341 7.28714 26.9621C7.69292 27.8901 9.85709 28.6856 12.0213 28.1553V31.2045C12.0213 31.2045 12.0213 31.4697 11.4802 31.6022C10.9392 31.7348 10.9392 32 11.2097 32H20.9485C21.219 32 21.219 31.7348 20.678 31.6022C20.1369 31.4697 20.1369 31.2045 20.1369 31.2045V28.1553C20.1369 28.1553 20.1488 26.5653 20.1369 26.0341C20.1072 24.702 19.1901 23.9128 19.1901 23.9128C21.4895 23.9128 25.0552 22.8615 25.8179 18.875C26.6294 14.6326 24.4653 12.6439 24.4653 12.6439Z" fill="black"/>
</g>
</svg>
