<svg xmlns="http://www.w3.org/2000/svg" width="20" height="20" viewBox="0 0 20 20" fill="none">
<path d="M9.6665 17.667C8.57317 17.667 7.53984 17.457 6.5665 17.037C5.59317 16.617 4.74317 16.0437 4.0165 15.317C3.28984 14.5903 2.7165 13.7403 2.2965 12.767C1.8765 11.7937 1.6665 10.7603 1.6665 9.66699C1.6665 8.56033 1.8765 7.52366 2.2965 6.55699C2.7165 5.59033 3.28984 4.74366 4.0165 4.01699C4.74317 3.29033 5.59317 2.71699 6.5665 2.29699C7.53984 1.87699 8.57317 1.66699 9.6665 1.66699C10.7732 1.66699 11.8098 1.87699 12.7765 2.29699C13.7432 2.71699 14.5898 3.29033 15.3165 4.01699C16.0432 4.74366 16.6165 5.59033 17.0365 6.55699C17.4565 7.52366 17.6665 8.56033 17.6665 9.66699C17.6665 10.7603 17.4565 11.7937 17.0365 12.767C16.6165 13.7403 16.0432 14.5903 15.3165 15.317C14.5898 16.0437 13.7432 16.617 12.7765 17.037C11.8098 17.457 10.7732 17.667 9.6665 17.667ZM9.6665 16.027C10.0132 15.547 10.3132 15.047 10.5665 14.527C10.8198 14.007 11.0265 13.4537 11.1865 12.867H8.1465C8.3065 13.4537 8.51317 14.007 8.7665 14.527C9.01984 15.047 9.31984 15.547 9.6665 16.027ZM7.5865 15.707C7.3465 15.267 7.1365 14.8103 6.9565 14.337C6.7765 13.8637 6.6265 13.3737 6.5065 12.867H4.1465C4.53317 13.5337 5.0165 14.1137 5.5965 14.607C6.1765 15.1003 6.83984 15.467 7.5865 15.707ZM11.7465 15.707C12.4932 15.467 13.1565 15.1003 13.7365 14.607C14.3165 14.1137 14.7998 13.5337 15.1865 12.867H12.8265C12.7065 13.3737 12.5565 13.8637 12.3765 14.337C12.1965 14.8103 11.9865 15.267 11.7465 15.707ZM3.4665 11.267H6.1865C6.1465 11.0003 6.1165 10.737 6.0965 10.477C6.0765 10.217 6.0665 9.94699 6.0665 9.66699C6.0665 9.38699 6.0765 9.11699 6.0965 8.85699C6.1165 8.59699 6.1465 8.33366 6.1865 8.06699H3.4665C3.39984 8.33366 3.34984 8.59699 3.3165 8.85699C3.28317 9.11699 3.2665 9.38699 3.2665 9.66699C3.2665 9.94699 3.28317 10.217 3.3165 10.477C3.34984 10.737 3.39984 11.0003 3.4665 11.267ZM7.7865 11.267H11.5465C11.5865 11.0003 11.6165 10.737 11.6365 10.477C11.6565 10.217 11.6665 9.94699 11.6665 9.66699C11.6665 9.38699 11.6565 9.11699 11.6365 8.85699C11.6165 8.59699 11.5865 8.33366 11.5465 8.06699H7.7865C7.7465 8.33366 7.7165 8.59699 7.6965 8.85699C7.6765 9.11699 7.6665 9.38699 7.6665 9.66699C7.6665 9.94699 7.6765 10.217 7.6965 10.477C7.7165 10.737 7.7465 11.0003 7.7865 11.267ZM13.1465 11.267H15.8665C15.9332 11.0003 15.9832 10.737 16.0165 10.477C16.0498 10.217 16.0665 9.94699 16.0665 9.66699C16.0665 9.38699 16.0498 9.11699 16.0165 8.85699C15.9832 8.59699 15.9332 8.33366 15.8665 8.06699H13.1465C13.1865 8.33366 13.2165 8.59699 13.2365 8.85699C13.2565 9.11699 13.2665 9.38699 13.2665 9.66699C13.2665 9.94699 13.2565 10.217 13.2365 10.477C13.2165 10.737 13.1865 11.0003 13.1465 11.267ZM12.8265 6.46699H15.1865C14.7998 5.80033 14.3165 5.22033 13.7365 4.72699C13.1565 4.23366 12.4932 3.86699 11.7465 3.62699C11.9865 4.06699 12.1965 4.52366 12.3765 4.99699C12.5565 5.47033 12.7065 5.96033 12.8265 6.46699ZM8.1465 6.46699H11.1865C11.0265 5.88033 10.8198 5.32699 10.5665 4.80699C10.3132 4.28699 10.0132 3.78699 9.6665 3.30699C9.31984 3.78699 9.01984 4.28699 8.7665 4.80699C8.51317 5.32699 8.3065 5.88033 8.1465 6.46699ZM4.1465 6.46699H6.5065C6.6265 5.96033 6.7765 5.47033 6.9565 4.99699C7.1365 4.52366 7.3465 4.06699 7.5865 3.62699C6.83984 3.86699 6.1765 4.23366 5.5965 4.72699C5.0165 5.22033 4.53317 5.80033 4.1465 6.46699Z" fill="white"/>
</svg>