<svg width="486" height="58" viewBox="0 0 486 58" fill="none" xmlns="http://www.w3.org/2000/svg">
<path d="M0 4C0 1.79086 1.79086 0 4 0H457.246C457.967 0 458.675 0.195247 459.295 0.565049L484.05 15.3362C485.259 16.058 486 17.3627 486 18.7712V54C486 56.2091 484.209 58 482 58H31.9203C31.3169 58 30.7213 57.8635 30.1782 57.6007L2.25792 44.0924C0.877149 43.4244 0 42.0256 0 40.4917V4Z" fill="url(#paint0_linear_131_1497)"/>
<path d="M3.82117 5.99976C3.82117 4.06676 5.38817 2.49976 7.32117 2.49976H454.373C454.965 2.49976 455.548 2.65008 456.066 2.93666L480.372 16.3735C481.487 16.9897 482.179 18.1629 482.179 19.4366V51.9998C482.179 53.9327 480.612 55.4998 478.679 55.4998H33.6048C33.0602 55.4998 32.5231 55.3727 32.0363 55.1286L5.75265 41.9525C4.5687 41.3589 3.82117 40.148 3.82117 38.8236V5.99976Z" stroke="#050026" stroke-opacity="0.6"/>
<path d="M383.009 53L377.069 55H444.104L439.012 53H383.009Z" fill="#050026"/>
<path d="M47.8364 5L41.8966 3H108.931L103.84 5H47.8364Z" fill="#050026"/>
<path d="M183.859 31.8337H186.057C185.986 32.6716 185.752 33.4187 185.354 34.075C184.955 34.7253 184.396 35.238 183.675 35.613C182.954 35.988 182.078 36.1755 181.047 36.1755C180.256 36.1755 179.544 36.0349 178.911 35.7537C178.278 35.4666 177.736 35.0623 177.285 34.5408C176.834 34.0134 176.488 33.3777 176.248 32.6335C176.014 31.8894 175.896 31.0574 175.896 30.1375V29.074C175.896 28.1541 176.017 27.322 176.257 26.5779C176.503 25.8337 176.854 25.198 177.312 24.6707C177.769 24.1375 178.316 23.7302 178.955 23.449C179.6 23.1677 180.323 23.0271 181.126 23.0271C182.146 23.0271 183.007 23.2146 183.71 23.5896C184.413 23.9646 184.958 24.4832 185.345 25.1453C185.737 25.8074 185.978 26.5662 186.065 27.4216H183.868C183.81 26.8708 183.681 26.3992 183.481 26.0066C183.288 25.614 183.001 25.3152 182.62 25.1101C182.239 24.8992 181.741 24.7937 181.126 24.7937C180.622 24.7937 180.183 24.8875 179.808 25.075C179.433 25.2625 179.119 25.5378 178.867 25.9011C178.615 26.2644 178.425 26.7126 178.296 27.2458C178.173 27.7732 178.111 28.3767 178.111 29.0564V30.1375C178.111 30.782 178.167 31.3679 178.278 31.8953C178.396 32.4167 178.571 32.865 178.806 33.24C179.046 33.615 179.351 33.905 179.72 34.1101C180.089 34.3152 180.531 34.4177 181.047 34.4177C181.674 34.4177 182.181 34.3181 182.567 34.1189C182.96 33.9197 183.256 33.6296 183.455 33.2488C183.66 32.8621 183.795 32.3904 183.859 31.8337ZM187.595 31.3503V31.1482C187.595 30.4626 187.695 29.8269 187.894 29.241C188.093 28.6492 188.38 28.1365 188.755 27.7029C189.136 27.2634 189.599 26.9236 190.144 26.6833C190.695 26.4373 191.316 26.3142 192.007 26.3142C192.705 26.3142 193.326 26.4373 193.871 26.6833C194.421 26.9236 194.887 27.2634 195.268 27.7029C195.649 28.1365 195.939 28.6492 196.138 29.241C196.337 29.8269 196.437 30.4626 196.437 31.1482V31.3503C196.437 32.0359 196.337 32.6716 196.138 33.2576C195.939 33.8435 195.649 34.3562 195.268 34.7957C194.887 35.2292 194.424 35.5691 193.879 35.8152C193.335 36.0554 192.716 36.1755 192.025 36.1755C191.328 36.1755 190.704 36.0554 190.153 35.8152C189.608 35.5691 189.145 35.2292 188.764 34.7957C188.383 34.3562 188.093 33.8435 187.894 33.2576C187.695 32.6716 187.595 32.0359 187.595 31.3503ZM189.713 31.1482V31.3503C189.713 31.7781 189.757 32.1824 189.845 32.5632C189.933 32.9441 190.071 33.2781 190.258 33.5652C190.446 33.8523 190.686 34.0779 190.979 34.2419C191.272 34.406 191.621 34.488 192.025 34.488C192.418 34.488 192.757 34.406 193.045 34.2419C193.337 34.0779 193.578 33.8523 193.765 33.5652C193.953 33.2781 194.09 32.9441 194.178 32.5632C194.272 32.1824 194.319 31.7781 194.319 31.3503V31.1482C194.319 30.7263 194.272 30.3279 194.178 29.9529C194.09 29.572 193.95 29.2351 193.756 28.9421C193.569 28.6492 193.329 28.4207 193.036 28.2566C192.749 28.0867 192.406 28.0017 192.007 28.0017C191.609 28.0017 191.263 28.0867 190.97 28.2566C190.683 28.4207 190.446 28.6492 190.258 28.9421C190.071 29.2351 189.933 29.572 189.845 29.9529C189.757 30.3279 189.713 30.7263 189.713 31.1482ZM200.463 28.5203V35.9998H198.345V26.49H200.34L200.463 28.5203ZM200.085 30.8933L199.4 30.8845C199.405 30.2107 199.499 29.5925 199.681 29.03C199.868 28.4675 200.126 27.9841 200.454 27.5798C200.788 27.1755 201.187 26.865 201.65 26.6482C202.112 26.4255 202.628 26.3142 203.196 26.3142C203.654 26.3142 204.067 26.3787 204.436 26.5076C204.811 26.6306 205.13 26.8328 205.394 27.114C205.663 27.3953 205.868 27.7615 206.009 28.2126C206.15 28.658 206.22 29.2058 206.22 29.8562V35.9998H204.093V29.8474C204.093 29.3904 204.026 29.03 203.891 28.7664C203.762 28.4968 203.571 28.3064 203.32 28.1951C203.073 28.0779 202.766 28.0193 202.397 28.0193C202.033 28.0193 201.708 28.0955 201.421 28.2478C201.134 28.4001 200.891 28.6082 200.692 28.8718C200.498 29.1355 200.349 29.4402 200.243 29.7859C200.138 30.1316 200.085 30.5007 200.085 30.8933ZM210.633 28.5203V35.9998H208.514V26.49H210.51L210.633 28.5203ZM210.255 30.8933L209.569 30.8845C209.575 30.2107 209.669 29.5925 209.85 29.03C210.038 28.4675 210.296 27.9841 210.624 27.5798C210.958 27.1755 211.356 26.865 211.819 26.6482C212.282 26.4255 212.798 26.3142 213.366 26.3142C213.823 26.3142 214.236 26.3787 214.605 26.5076C214.98 26.6306 215.3 26.8328 215.563 27.114C215.833 27.3953 216.038 27.7615 216.179 28.2126C216.319 28.658 216.389 29.2058 216.389 29.8562V35.9998H214.263V29.8474C214.263 29.3904 214.195 29.03 214.06 28.7664C213.931 28.4968 213.741 28.3064 213.489 28.1951C213.243 28.0779 212.935 28.0193 212.566 28.0193C212.203 28.0193 211.878 28.0955 211.591 28.2478C211.304 28.4001 211.06 28.6082 210.861 28.8718C210.668 29.1355 210.518 29.4402 210.413 29.7859C210.307 30.1316 210.255 30.5007 210.255 30.8933ZM222.894 36.1755C222.191 36.1755 221.555 36.0613 220.987 35.8328C220.424 35.5984 219.944 35.2732 219.545 34.8572C219.153 34.4412 218.851 33.9519 218.64 33.3894C218.429 32.8269 218.324 32.2205 218.324 31.5701V31.2185C218.324 30.4744 218.432 29.8005 218.649 29.197C218.866 28.5935 219.167 28.0779 219.554 27.6501C219.941 27.2166 220.398 26.8855 220.925 26.657C221.453 26.4285 222.024 26.3142 222.639 26.3142C223.319 26.3142 223.913 26.4285 224.423 26.657C224.933 26.8855 225.355 27.2078 225.689 27.6238C226.029 28.0339 226.281 28.5232 226.445 29.0916C226.615 29.6599 226.7 30.2869 226.7 30.9724V31.8777H219.352V30.3572H224.608V30.1902C224.596 29.8093 224.52 29.4519 224.379 29.1179C224.245 28.7839 224.037 28.5144 223.755 28.3093C223.474 28.1042 223.099 28.0017 222.63 28.0017C222.279 28.0017 221.965 28.0779 221.69 28.2302C221.42 28.3767 221.195 28.5906 221.013 28.8718C220.831 29.1531 220.691 29.4929 220.591 29.8914C220.497 30.2839 220.451 30.7263 220.451 31.2185V31.5701C220.451 31.9861 220.506 32.3728 220.618 32.7302C220.735 33.0818 220.905 33.3894 221.127 33.6531C221.35 33.9167 221.62 34.1248 221.936 34.2771C222.252 34.4236 222.613 34.4968 223.017 34.4968C223.527 34.4968 223.981 34.3943 224.379 34.1892C224.778 33.9841 225.123 33.6941 225.416 33.3191L226.533 34.4001C226.328 34.699 226.061 34.9861 225.733 35.2615C225.405 35.531 225.003 35.7507 224.529 35.9207C224.06 36.0906 223.515 36.1755 222.894 36.1755ZM232.387 34.488C232.732 34.488 233.043 34.4207 233.318 34.2859C233.6 34.1453 233.825 33.9519 233.995 33.7058C234.171 33.4597 234.268 33.1755 234.285 32.8533H236.28C236.269 33.4685 236.087 34.0281 235.735 34.532C235.384 35.0359 234.918 35.4373 234.338 35.7361C233.758 36.0291 233.116 36.1755 232.413 36.1755C231.687 36.1755 231.054 36.0525 230.515 35.8064C229.976 35.5544 229.527 35.2087 229.17 34.7693C228.812 34.3298 228.543 33.823 228.361 33.2488C228.186 32.6746 228.098 32.0593 228.098 31.4031V31.0955C228.098 30.4392 228.186 29.824 228.361 29.2498C228.543 28.6697 228.812 28.1599 229.17 27.7205C229.527 27.281 229.976 26.9382 230.515 26.6921C231.054 26.4402 231.684 26.3142 232.404 26.3142C233.166 26.3142 233.834 26.4666 234.408 26.7712C234.982 27.0701 235.434 27.489 235.762 28.0281C236.096 28.5613 236.269 29.1824 236.28 29.8914H234.285C234.268 29.5398 234.18 29.2234 234.021 28.9421C233.869 28.655 233.652 28.4265 233.371 28.2566C233.096 28.0867 232.765 28.0017 232.378 28.0017C231.95 28.0017 231.596 28.0896 231.314 28.2654C231.033 28.4353 230.813 28.6697 230.655 28.9685C230.497 29.2615 230.383 29.5925 230.312 29.9617C230.248 30.325 230.216 30.7029 230.216 31.0955V31.4031C230.216 31.7957 230.248 32.1765 230.312 32.5457C230.377 32.9148 230.488 33.2458 230.646 33.5388C230.811 33.8259 231.033 34.0574 231.314 34.2332C231.596 34.4031 231.953 34.488 232.387 34.488ZM242.416 26.49V28.0369H237.054V26.49H242.416ZM238.601 24.1609H240.719V33.3718C240.719 33.6648 240.76 33.8904 240.842 34.0486C240.93 34.2009 241.05 34.3035 241.203 34.3562C241.355 34.4089 241.534 34.4353 241.739 34.4353C241.885 34.4353 242.026 34.4265 242.161 34.4089C242.296 34.3914 242.404 34.3738 242.486 34.3562L242.495 35.9734C242.319 36.0261 242.114 36.073 241.879 36.114C241.651 36.155 241.387 36.1755 241.088 36.1755C240.602 36.1755 240.171 36.0906 239.796 35.9207C239.421 35.7449 239.129 35.4607 238.918 35.0681C238.707 34.6755 238.601 34.1541 238.601 33.5037V24.1609ZM252.252 33.1257L254.801 23.2029H256.137L255.987 25.7605L253.262 35.9998H251.874L252.252 33.1257ZM250.345 23.2029L252.41 33.0466L252.595 35.9998H251.118L248.156 23.2029H250.345ZM259.028 33.0203L261.067 23.2029H263.264L260.303 35.9998H258.826L259.028 33.0203ZM256.655 23.2029L259.178 33.1521L259.547 35.9998H258.158L255.477 25.7605L255.337 23.2029H256.655ZM269.901 34.0925V29.5574C269.901 29.2175 269.839 28.9246 269.716 28.6785C269.593 28.4324 269.406 28.2419 269.154 28.1072C268.908 27.9724 268.597 27.905 268.222 27.905C267.876 27.905 267.578 27.9636 267.326 28.0808C267.074 28.198 266.877 28.3562 266.737 28.5554C266.596 28.7546 266.526 28.9802 266.526 29.2322H264.416C264.416 28.8572 264.507 28.4939 264.689 28.1423C264.871 27.7908 265.134 27.4773 265.48 27.2019C265.826 26.9265 266.239 26.7097 266.719 26.5515C267.2 26.3933 267.739 26.3142 268.336 26.3142C269.051 26.3142 269.684 26.4343 270.235 26.6746C270.791 26.9148 271.228 27.2781 271.544 27.7644C271.867 28.2449 272.028 28.8484 272.028 29.575V33.8025C272.028 34.2361 272.057 34.6257 272.116 34.9714C272.18 35.3113 272.271 35.6072 272.388 35.8591V35.9998H270.217C270.118 35.7712 270.038 35.4812 269.98 35.1296C269.927 34.7722 269.901 34.4265 269.901 34.0925ZM270.208 30.2166L270.226 31.5261H268.705C268.313 31.5261 267.967 31.5642 267.668 31.6404C267.37 31.7107 267.121 31.8162 266.921 31.9568C266.722 32.0974 266.573 32.2673 266.473 32.4666C266.373 32.6658 266.324 32.8914 266.324 33.1433C266.324 33.3953 266.382 33.6267 266.499 33.8376C266.617 34.0427 266.787 34.2039 267.009 34.321C267.238 34.4382 267.513 34.4968 267.835 34.4968C268.269 34.4968 268.647 34.4089 268.969 34.2332C269.297 34.0515 269.555 33.8318 269.743 33.574C269.93 33.3103 270.03 33.0613 270.041 32.8269L270.727 33.7673C270.657 34.0076 270.537 34.2654 270.367 34.5408C270.197 34.8162 269.974 35.0798 269.699 35.3318C269.429 35.5779 269.104 35.78 268.723 35.9382C268.348 36.0964 267.914 36.1755 267.422 36.1755C266.801 36.1755 266.247 36.0525 265.761 35.8064C265.275 35.5544 264.894 35.2175 264.619 34.7957C264.343 34.3679 264.205 33.8845 264.205 33.3455C264.205 32.8416 264.299 32.3962 264.487 32.0095C264.68 31.6169 264.961 31.2888 265.33 31.0251C265.705 30.7615 266.162 30.5623 266.702 30.4275C267.241 30.2869 267.856 30.2166 268.547 30.2166H270.208ZM276.66 22.4998V35.9998H274.533V22.4998H276.66ZM281.398 22.4998V35.9998H279.271V22.4998H281.398ZM288.061 36.1755C287.358 36.1755 286.722 36.0613 286.154 35.8328C285.591 35.5984 285.111 35.2732 284.712 34.8572C284.32 34.4412 284.018 33.9519 283.807 33.3894C283.596 32.8269 283.49 32.2205 283.49 31.5701V31.2185C283.49 30.4744 283.599 29.8005 283.816 29.197C284.032 28.5935 284.334 28.0779 284.721 27.6501C285.108 27.2166 285.565 26.8855 286.092 26.657C286.619 26.4285 287.191 26.3142 287.806 26.3142C288.486 26.3142 289.08 26.4285 289.59 26.657C290.1 26.8855 290.522 27.2078 290.856 27.6238C291.196 28.0339 291.447 28.5232 291.612 29.0916C291.781 29.6599 291.866 30.2869 291.866 30.9724V31.8777H284.519V30.3572H289.775V30.1902C289.763 29.8093 289.687 29.4519 289.546 29.1179C289.411 28.7839 289.203 28.5144 288.922 28.3093C288.641 28.1042 288.266 28.0017 287.797 28.0017C287.446 28.0017 287.132 28.0779 286.857 28.2302C286.587 28.3767 286.362 28.5906 286.18 28.8718C285.998 29.1531 285.858 29.4929 285.758 29.8914C285.664 30.2839 285.617 30.7263 285.617 31.2185V31.5701C285.617 31.9861 285.673 32.3728 285.784 32.7302C285.902 33.0818 286.071 33.3894 286.294 33.6531C286.517 33.9167 286.786 34.1248 287.103 34.2771C287.419 34.4236 287.779 34.4968 288.184 34.4968C288.694 34.4968 289.148 34.3943 289.546 34.1892C289.945 33.9841 290.29 33.6941 290.583 33.3191L291.699 34.4001C291.494 34.699 291.228 34.9861 290.9 35.2615C290.571 35.531 290.17 35.7507 289.696 35.9207C289.227 36.0906 288.682 36.1755 288.061 36.1755ZM298.028 26.49V28.0369H292.667V26.49H298.028ZM294.214 24.1609H296.332V33.3718C296.332 33.6648 296.373 33.8904 296.455 34.0486C296.543 34.2009 296.663 34.3035 296.815 34.3562C296.968 34.4089 297.146 34.4353 297.351 34.4353C297.498 34.4353 297.638 34.4265 297.773 34.4089C297.908 34.3914 298.016 34.3738 298.098 34.3562L298.107 35.9734C297.931 36.0261 297.726 36.073 297.492 36.114C297.263 36.155 297 36.1755 296.701 36.1755C296.215 36.1755 295.784 36.0906 295.409 35.9207C295.034 35.7449 294.741 35.4607 294.53 35.0681C294.319 34.6755 294.214 34.1541 294.214 33.5037V24.1609Z" fill="black"/>
<defs>
<linearGradient id="paint0_linear_131_1497" x1="152.743" y1="-18.4545" x2="493.71" y2="207.621" gradientUnits="userSpaceOnUse">
<stop stop-color="#DCFFFE"/>
<stop offset="1" stop-color="#FFFFB3"/>
</linearGradient>
</defs>
</svg>
