<svg width="85" height="16" viewBox="0 0 85 16" fill="none" xmlns="http://www.w3.org/2000/svg">
<path d="M10.8086 16L0.4375 0.449219H6.02734L16.457 16H10.8086ZM11.6289 7.48047L8.86328 3.4375L10.6797 0.449219H16.2344L11.6289 7.48047ZM0.121094 16L5.07812 8.75781L7.85547 12.9766L6.03906 16H0.121094ZM23.875 16V12.8945H27.7188V3.55469H23.875V0.449219H29.793L32.9102 3.55469V12.8945L29.793 16H23.875ZM17.875 16V0.449219H23.0547V16H17.875ZM43.2578 16V12.8359H45.2383V3.60156H43.2578V0.449219H47.2773L50.418 3.55469V12.8945L47.2773 16H43.2578ZM38.4531 16L35.3008 12.8945V3.55469L38.4531 0.449219H42.4375V3.60156H40.4922V12.8359H42.4375V16H38.4531ZM55.9258 16L52.8203 12.8945V3.55469L55.9258 0.449219H58V12.8945H62.4414V16H55.9258ZM62.6758 5.11328V3.55469H58.8203V0.449219H65.1367L67.8555 3.55469V5.11328H62.6758ZM63.2617 16V10.457H60.7422V7.375H67.8555V16H63.2617ZM70.3516 16V0.449219H75.5312V6.61328H80.4883V9.61328H75.5312V16H70.3516ZM79.5742 4.94922V3.46094H76.3516V0.449219H84.4492V4.94922H79.5742ZM76.3516 16V12.8945H79.2695V11.3359H84.4492V16H76.3516Z" fill="white"/>
</svg>
