<svg width="32" height="32" viewBox="0 0 32 32" fill="none" xmlns="http://www.w3.org/2000/svg">
<circle cx="16" cy="16" r="16" fill="#5869EA"/>
<path d="M21.1023 11.5947C21.0982 11.5869 21.0915 11.5808 21.0832 11.5775C20.1323 11.148 19.1288 10.8418 18.0979 10.6664C18.0786 10.6629 18.0593 10.6719 18.0499 10.6887C17.9132 10.9329 17.7892 11.1836 17.6782 11.4401C16.5669 11.274 15.4365 11.274 14.3252 11.4401C14.2135 11.183 14.0875 10.9322 13.9477 10.6887C13.9379 10.6723 13.9188 10.6634 13.8997 10.6664C12.8686 10.8414 11.8651 11.1477 10.9143 11.5775C10.9061 11.5809 10.8993 11.5867 10.8946 11.5941C8.99319 14.3892 8.47233 17.1157 8.72785 19.8083C8.7293 19.8216 8.73618 19.8338 8.74693 19.8421C9.8541 20.649 11.0925 21.265 12.4092 21.6637C12.4282 21.6693 12.4488 21.6627 12.4607 21.6471C12.7435 21.2683 12.9941 20.8672 13.2099 20.4478C13.2159 20.4362 13.2166 20.4226 13.2117 20.4104C13.2069 20.3983 13.197 20.3888 13.1845 20.3843C12.7893 20.2355 12.4068 20.056 12.0404 19.8477C12.0269 19.8399 12.0182 19.826 12.0173 19.8106C12.0164 19.7951 12.0233 19.7803 12.0358 19.771C12.1129 19.7143 12.1886 19.6558 12.263 19.5957C12.2763 19.5849 12.2947 19.5825 12.3104 19.5894C14.7107 20.6678 17.3093 20.6678 19.6812 19.5894C19.6969 19.5821 19.7156 19.5843 19.7292 19.5952C19.8036 19.6556 19.8796 19.7142 19.9569 19.771C19.9695 19.7802 19.9765 19.795 19.9757 19.8104C19.9749 19.8258 19.9664 19.8398 19.9529 19.8477C19.5874 20.0578 19.2044 20.2371 18.8082 20.3837C18.7958 20.3884 18.786 20.398 18.7812 20.4103C18.7764 20.4225 18.7772 20.4362 18.7833 20.4478C19.0027 20.8648 19.253 21.2655 19.532 21.6464C19.5436 21.6624 19.5643 21.6694 19.5834 21.6636C20.9025 21.2663 22.1431 20.6503 23.2516 19.8421C23.2626 19.8342 23.2695 19.8221 23.2707 19.8089C23.5766 16.6959 22.7586 13.9918 21.1023 11.5947ZM13.5684 18.1688C12.8457 18.1688 12.2503 17.516 12.2503 16.7142C12.2503 15.9125 12.8342 15.2597 13.5684 15.2597C14.3083 15.2597 14.898 15.9182 14.8865 16.7142C14.8865 17.516 14.3025 18.1688 13.5684 18.1688ZM18.4418 18.1688C17.7192 18.1688 17.1237 17.516 17.1237 16.7142C17.1237 15.9125 17.7076 15.2597 18.4418 15.2597C19.1818 15.2597 19.7715 15.9182 19.7599 16.7142C19.7599 17.516 19.1818 18.1688 18.4418 18.1688Z" fill="white"/>
</svg>
