<svg width="134" height="40" viewBox="0 0 134 40" fill="none" xmlns="http://www.w3.org/2000/svg">
<path d="M15.2486 2.92136L14.9081 2.57018L14.6315 2.97371L9.55671 10.379L9.52022 10.4323L9.50233 10.4943C9.39149 10.8785 9.60551 11.2166 9.81563 11.4321C10.041 11.6632 10.3599 11.8622 10.7078 12.0087C11.3916 12.2966 12.3292 12.4376 13.0949 12.0695C13.5146 11.8678 13.8857 11.4135 14.201 10.9195C14.5277 10.4075 14.8389 9.77989 15.1166 9.14386C15.6724 7.87102 16.1137 6.51941 16.292 5.8836C16.4683 5.2548 16.2987 4.61663 16.0626 4.11231C15.824 3.60245 15.4907 3.17091 15.2486 2.92136Z" fill="#F5F4F4" stroke="black" stroke-width="0.8"/>
<mask id="mask0_312_532" style="mask-type:alpha" maskUnits="userSpaceOnUse" x="9" y="3" width="7" height="9">
<path d="M14.9615 3.19983L9.88666 10.6051C9.68765 11.2951 11.6778 12.307 12.9216 11.709C14.1654 11.1111 15.5585 7.01748 15.9068 5.77559C16.1854 4.78208 15.3927 3.64445 14.9615 3.19983Z" fill="#F5F4F4"/>
</mask>
<g mask="url(#mask0_312_532)">
<path d="M12.8274 6.77007C13.7262 5.36736 14.9619 4.51217 15.4674 4.25992L16.0175 5.3462L15.2843 7.75998L13.0976 12.0478L10.0384 11.7441C10.5935 10.6705 11.9286 8.17278 12.8274 6.77007Z" fill="url(#paint0_linear_312_532)"/>
<path d="M14.4375 6.86033C15.2379 5.26332 15.5767 3.38672 16.0919 3.15374L17.1147 6.40974L16.6158 9.28614L14.7746 14.2563L11.6291 12.5685C12.0984 11.3253 13.6371 8.45733 14.4375 6.86033Z" fill="url(#paint1_linear_312_532)"/>
</g>
<path d="M28.1189 26.1689L27.9465 26.2666C28.3282 27.0153 28.7454 28.0989 28.0329 29.2798C27.3134 30.4723 25.428 31.7913 21.1039 32.9473C14.2843 34.7704 9.19422 32.7556 7.55858 32.1081C7.54082 32.1011 7.52348 32.0942 7.50654 32.0875L7.20722 31.9692L7.38819 32.2346C8.09342 33.2688 9.47376 34.5849 11.8004 35.3565C14.1269 36.128 17.3932 36.3531 21.8683 35.2166C28.8252 33.4499 29.6264 28.3998 28.1189 26.1689Z" fill="url(#paint2_linear_312_532)" stroke="black" stroke-width="0.2"/>
<path d="M28.2311 26.7594L28.0399 26.7958C28.0309 27.2015 27.7861 27.7044 27.2921 28.2679C26.8005 28.8286 26.0725 29.4374 25.1219 30.0538C23.2211 31.2862 20.4407 32.5425 16.9118 33.5039L16.6822 33.5665L16.8915 33.686C17.2584 33.8957 17.7516 34.0274 18.3219 34.0906C18.8935 34.154 19.5491 34.1492 20.2456 34.0813C21.6383 33.9454 23.2025 33.5559 24.5984 32.9437C25.9927 32.3321 27.2289 31.4939 27.9537 30.4543C28.6826 29.4088 28.8914 28.1624 28.2311 26.7594Z" fill="url(#paint3_linear_312_532)" stroke="black" stroke-width="0.2"/>
<path d="M1.0844 20.4506L0.916259 20.5611L0.904716 20.7619C0.777487 22.9757 1.38858 26.2792 3.71305 28.9462C6.05188 31.6297 10.0728 33.6094 16.6431 33.251C20.759 33.0265 23.8214 31.8075 25.9917 29.9997C28.1618 28.1921 29.4125 25.8186 29.9437 23.3333C30.4742 20.8514 30.2889 18.2527 29.5853 15.9718C28.8828 13.6946 27.6536 11.7032 26.0646 10.463C22.9482 8.03067 18.4594 7.04896 14.2838 8.15678C10.1215 9.26108 6.29505 12.4341 4.43676 18.2478L1.0844 20.4506Z" fill="url(#paint4_linear_312_532)" stroke="black" stroke-width="0.8"/>
<path d="M12.0001 29.9999C9.3674 30.702 7.06677 26.7999 7.2001 25.1999C8.00011 25.3599 9.46678 25.2666 9.80011 25.1999C10.6001 25.04 15.0001 29.1999 12.0001 29.9999Z" fill="#FF969C" stroke="black" stroke-width="0.4"/>
<path d="M8.6001 25.4C8.66676 25.8 9.5201 26.72 10.0001 27.2" stroke="black" stroke-width="0.4"/>
<path d="M3.3999 23.7999C5.33324 24.9333 9.6799 26.5199 12.3999 23.7999" stroke="black" stroke-width="0.4"/>
<path d="M3.61578 24.0696C2.71206 24.0131 2.00097 23.4835 1.53105 22.8342C1.05949 22.1827 0.844698 21.4301 0.912195 20.9489C0.973551 20.6492 1.26206 20.4045 1.96425 20.3325C2.66474 20.2606 3.73693 20.3679 5.27866 20.735C6.03698 20.9155 6.42912 21.225 6.58105 21.5617C6.73238 21.8971 6.6601 22.2928 6.41309 22.681C5.9167 23.461 4.75504 24.1408 3.61578 24.0696Z" fill="black" stroke="black" stroke-width="0.2"/>
<path d="M23.6715 16.2966C22.1848 11.6613 15.3082 10.1652 11.3841 10.6312C11.3841 10.6312 7.77881 11.0726 5.64506 14.0157C3.51132 16.9588 4.24709 18.504 4.24709 18.504C12.4142 19.3869 10.9426 19.9019 14.3272 22.7715C17.7118 25.641 25.8848 23.1969 23.6715 16.2966Z" fill="url(#paint5_linear_312_532)" stroke="black" stroke-width="0.8"/>
<path d="M22.0691 16.0027C20.7556 12.1287 14.6804 10.8783 11.2136 11.2678C11.2136 11.2678 8.02847 11.6367 6.14339 14.0964C4.25832 16.5561 4.90834 17.8475 4.90834 17.8475C12.1237 18.5854 10.8236 19.0158 13.8137 21.414C16.8039 23.8122 24.0244 21.7696 22.0691 16.0027Z" fill="url(#paint6_linear_312_532)"/>
<path d="M22.0691 16.0027C20.7556 12.1287 14.6804 10.8783 11.2136 11.2678C11.2136 11.2678 8.02847 11.6367 6.14339 14.0964C4.25832 16.5561 4.90834 17.8475 4.90834 17.8475C12.1237 18.5854 10.8236 19.0158 13.8137 21.414C16.8039 23.8122 24.0244 21.7696 22.0691 16.0027Z" fill="white" fill-opacity="0.4"/>
<path d="M22.0691 16.0027C20.7556 12.1287 14.6804 10.8783 11.2136 11.2678C11.2136 11.2678 8.02847 11.6367 6.14339 14.0964C4.25832 16.5561 4.90834 17.8475 4.90834 17.8475C12.1237 18.5854 10.8236 19.0158 13.8137 21.414C16.8039 23.8122 24.0244 21.7696 22.0691 16.0027Z" stroke="black" stroke-width="0.2"/>
<path fill-rule="evenodd" clip-rule="evenodd" d="M9.58984 12.0713L8.06001 11.5999L10.7259 15.2706L5.97684 16.856L7.58103 17.3503L11.3279 16.0995L13.5786 19.1985L15.1084 19.6699L12.2836 15.7805L16.7683 14.2834L15.1641 13.7891L11.6816 14.9516L9.58984 12.0713Z" fill="black"/>
<path d="M31.4388 21.5942C31.4388 24.1494 29.8213 26.0503 28.0128 26.0503C26.2043 26.0503 24.5868 24.1494 24.5868 21.5942C24.5868 19.0391 26.2043 17.1381 28.0128 17.1381C29.8213 17.1381 31.4388 19.0391 31.4388 21.5942Z" fill="url(#paint7_linear_312_532)" stroke="black" stroke-width="0.8"/>
<path d="M31.6027 21.2263C31.6027 23.1773 30.2501 24.7317 28.6125 24.7317C26.9749 24.7317 25.6222 23.1773 25.6222 21.2263C25.6222 19.2754 26.9749 17.721 28.6125 17.721C30.2501 17.721 31.6027 19.2754 31.6027 21.2263Z" fill="#C1C8CF" stroke="black" stroke-width="0.2"/>
<path d="M31.0593 20.5395C31.0593 21.7156 30.2344 22.6204 29.2727 22.6204C28.3111 22.6204 27.4861 21.7156 27.4861 20.5395C27.4861 19.3634 28.3111 18.4586 29.2727 18.4586C30.2344 18.4586 31.0593 19.3634 31.0593 20.5395Z" fill="#707070" stroke="#D1FFFF" stroke-width="0.4"/>
<path d="M35.0112 4.69862L34.6584 4.30506L34.3755 4.75157L26.8706 16.5975L26.8378 16.6493L26.822 16.7085C26.6963 17.1797 26.9322 17.6254 27.2299 17.9555C27.5388 18.2982 27.9862 18.6032 28.4866 18.8311C29.4738 19.2807 30.809 19.4899 31.8813 18.9324C32.4505 18.6364 32.9726 17.9566 33.4346 17.1735C33.9088 16.3698 34.3634 15.3791 34.7716 14.3677C35.5885 12.3442 36.2374 10.1936 36.4986 9.18636C36.7363 8.26935 36.5114 7.3194 36.1731 6.5377C35.8328 5.75113 35.3554 5.08247 35.0112 4.69862Z" fill="#F5F4F4" stroke="black" stroke-width="0.8"/>
<mask id="mask1_312_532" style="mask-type:alpha" maskUnits="userSpaceOnUse" x="27" y="4" width="10" height="15">
<path d="M34.7134 4.96564L27.2085 16.8116C26.9142 17.9153 29.8573 19.534 31.6967 18.5775C33.5361 17.621 35.5963 11.0726 36.1114 9.08598C36.5234 7.4967 35.3511 5.67689 34.7134 4.96564Z" fill="#F5F4F4"/>
</mask>
<g mask="url(#mask1_312_532)">
<path d="M31.5574 10.6769C32.8866 8.43301 34.7139 7.065 35.4615 6.66148L36.275 8.39916L35.1907 12.2604L31.9569 19.1195L27.4328 18.6336C28.2538 16.9163 30.2282 12.9207 31.5574 10.6769Z" fill="url(#paint8_linear_312_532)"/>
<path d="M33.9385 10.8213C35.1222 8.26663 35.6232 5.2647 36.3852 4.89201L37.8977 10.1005L37.1599 14.7018L34.4371 22.6524L29.7853 19.9524C30.4793 17.9638 32.7548 13.376 33.9385 10.8213Z" fill="url(#paint9_linear_312_532)"/>
</g>
<path d="M39.1619 15.54L39.0759 15.0584L38.621 15.2384L30.2729 18.5401L30.2129 18.5638L30.1634 18.6052C29.8566 18.8618 29.845 19.2618 29.8987 19.5579C29.9564 19.8756 30.1094 20.2188 30.316 20.5349C30.7219 21.1559 31.4203 21.7971 32.261 21.9201C32.7218 21.9875 33.2834 21.8184 33.821 21.5851C34.3782 21.3434 34.9871 20.997 35.573 20.625C36.7455 19.8805 37.8671 19.0067 38.3705 18.5793C38.8683 18.1566 39.0845 17.5326 39.1708 16.9825C39.258 16.4264 39.223 15.8822 39.1619 15.54Z" fill="#F5F4F4" stroke="black" stroke-width="0.8"/>
<mask id="mask2_312_532" style="mask-type:alpha" maskUnits="userSpaceOnUse" x="30" y="15" width="9" height="7">
<path d="M38.7681 15.6103L30.42 18.9121C29.8692 19.3728 30.9533 21.3245 32.3189 21.5243C33.6844 21.7241 37.1284 19.1092 38.1116 18.2744C38.8981 17.6065 38.877 16.2201 38.7681 15.6103Z" fill="#F5F4F4"/>
</mask>
<g mask="url(#mask2_312_532)">
<path d="M35.0024 17.377C36.5319 16.7167 38.0345 16.6986 38.5947 16.7721L38.4433 17.9803L36.4858 19.5715L32.2753 21.9036L29.9088 19.9412C30.9694 19.3616 33.4729 18.0374 35.0024 17.377Z" fill="url(#paint10_linear_312_532)"/>
<path d="M36.2869 18.3521C37.8435 17.4757 39.1737 16.1093 39.7312 16.2043L38.7585 19.4756L36.7364 21.5813L32.4309 24.6723L30.7668 21.5141C31.851 20.7459 34.7304 19.2285 36.2869 18.3521Z" fill="url(#paint11_linear_312_532)"/>
</g>
<path d="M58.8086 27L48.4375 11.4492H54.0273L64.457 27H58.8086ZM59.6289 18.4805L56.8633 14.4375L58.6797 11.4492H64.2344L59.6289 18.4805ZM48.1211 27L53.0781 19.7578L55.8555 23.9766L54.0391 27H48.1211ZM71.875 27V23.8945H75.7188V14.5547H71.875V11.4492H77.793L80.9102 14.5547V23.8945L77.793 27H71.875ZM65.875 27V11.4492H71.0547V27H65.875ZM91.2578 27V23.8359H93.2383V14.6016H91.2578V11.4492H95.2773L98.418 14.5547V23.8945L95.2773 27H91.2578ZM86.4531 27L83.3008 23.8945V14.5547L86.4531 11.4492H90.4375V14.6016H88.4922V23.8359H90.4375V27H86.4531ZM103.926 27L100.82 23.8945V14.5547L103.926 11.4492H106V23.8945H110.441V27H103.926ZM110.676 16.1133V14.5547H106.82V11.4492H113.137L115.855 14.5547V16.1133H110.676ZM111.262 27V21.457H108.742V18.375H115.855V27H111.262ZM118.352 27V11.4492H123.531V17.6133H128.488V20.6133H123.531V27H118.352ZM127.574 15.9492V14.4609H124.352V11.4492H132.449V15.9492H127.574ZM124.352 27V23.8945H127.27V22.3359H132.449V27H124.352Z" fill="white"/>
<defs>
<linearGradient id="paint0_linear_312_532" x1="15.6399" y1="4.60062" x2="13.1739" y2="12.2406" gradientUnits="userSpaceOnUse">
<stop stop-color="#F3F5F5"/>
<stop offset="1" stop-color="#E1E2E3"/>
</linearGradient>
<linearGradient id="paint1_linear_312_532" x1="16.6165" y1="5.42602" x2="12.6452" y2="13.3932" gradientUnits="userSpaceOnUse">
<stop stop-color="#DCDEE1"/>
<stop offset="1" stop-color="#A9B1BA"/>
</linearGradient>
<linearGradient id="paint2_linear_312_532" x1="29.7198" y1="27.653" x2="11.8194" y2="36.2559" gradientUnits="userSpaceOnUse">
<stop stop-color="#B9BECA"/>
<stop offset="0.182292" stop-color="white"/>
<stop offset="0.286458" stop-color="white"/>
<stop offset="0.432292" stop-color="#B6BCC8"/>
<stop offset="1" stop-color="#E0E3E9"/>
</linearGradient>
<linearGradient id="paint3_linear_312_532" x1="28.486" y1="28.79" x2="17.2203" y2="31.0976" gradientUnits="userSpaceOnUse">
<stop stop-color="#B9BECA"/>
<stop offset="0.182292" stop-color="white"/>
<stop offset="0.286458" stop-color="white"/>
<stop offset="0.432292" stop-color="#B6BCC8"/>
<stop offset="1" stop-color="#E0E3E9"/>
</linearGradient>
<linearGradient id="paint4_linear_312_532" x1="7.61399" y1="6.83607" x2="9.45217" y2="30.323" gradientUnits="userSpaceOnUse">
<stop stop-color="#A0A5B1"/>
<stop offset="0.182292" stop-color="white"/>
<stop offset="0.286458" stop-color="white"/>
<stop offset="0.432292" stop-color="#9CA0A9"/>
<stop offset="1" stop-color="#D4D6DB"/>
</linearGradient>
<linearGradient id="paint5_linear_312_532" x1="10.3856" y1="6.28607" x2="30.2321" y2="8.62062" gradientUnits="userSpaceOnUse">
<stop stop-color="#DCFFFE"/>
<stop offset="1" stop-color="#FFFFB3"/>
</linearGradient>
<linearGradient id="paint6_linear_312_532" x1="10.3315" y1="7.63632" x2="27.837" y2="9.81304" gradientUnits="userSpaceOnUse">
<stop stop-color="#DCFFFE"/>
<stop offset="1" stop-color="#FFFFB3"/>
</linearGradient>
<linearGradient id="paint7_linear_312_532" x1="29.7572" y1="17.7212" x2="28.7834" y2="25.5719" gradientUnits="userSpaceOnUse">
<stop stop-color="#232324"/>
<stop offset="0.202682"/>
<stop offset="0.302083" stop-color="white"/>
<stop offset="0.421875" stop-color="#B1B8C6"/>
<stop offset="0.614583" stop-color="#C2C6CE"/>
<stop offset="0.729167" stop-color="white"/>
<stop offset="0.854167" stop-color="#9D9794"/>
<stop offset="1" stop-color="#434385"/>
</linearGradient>
<linearGradient id="paint8_linear_312_532" x1="35.7166" y1="7.20649" x2="31.5169" y2="19.2349" gradientUnits="userSpaceOnUse">
<stop stop-color="#F3F5F5"/>
<stop offset="1" stop-color="#E1E2E3"/>
</linearGradient>
<linearGradient id="paint9_linear_312_532" x1="37.161" y1="8.52689" x2="30.5142" y2="20.8544" gradientUnits="userSpaceOnUse">
<stop stop-color="#DCDEE1"/>
<stop offset="1" stop-color="#A9B1BA"/>
</linearGradient>
<linearGradient id="paint10_linear_312_532" x1="38.5472" y1="17.1511" x2="32.2307" y2="22.1061" gradientUnits="userSpaceOnUse">
<stop stop-color="#F3F5F5"/>
<stop offset="1" stop-color="#E1E2E3"/>
</linearGradient>
<linearGradient id="paint11_linear_312_532" x1="38.8955" y1="18.3814" x2="31.1481" y2="22.766" gradientUnits="userSpaceOnUse">
<stop stop-color="#DCDEE1"/>
<stop offset="1" stop-color="#A9B1BA"/>
</linearGradient>
</defs>
</svg>
