<svg width="486" height="58" viewBox="0 0 486 58" fill="none" xmlns="http://www.w3.org/2000/svg">
<path d="M0 4C0 1.79086 1.79086 0 4 0H457.246C457.967 0 458.675 0.195247 459.295 0.565049L484.05 15.3362C485.259 16.058 486 17.3627 486 18.7712V54C486 56.2091 484.209 58 482 58H31.9203C31.3169 58 30.7213 57.8635 30.1782 57.6007L2.25792 44.0924C0.877149 43.4244 0 42.0256 0 40.4917V4Z" fill="url(#paint0_linear_412_859)"/>
<path d="M3.82129 5.99976C3.82129 4.06676 5.38829 2.49976 7.32129 2.49976H454.373C454.965 2.49976 455.548 2.65008 456.066 2.93666L480.372 16.3735C481.487 16.9897 482.179 18.1629 482.179 19.4366V51.9998C482.179 53.9327 480.612 55.4998 478.679 55.4998H33.6049C33.0603 55.4998 32.5232 55.3727 32.0364 55.1286L5.75277 41.9525C4.56883 41.3589 3.82129 40.148 3.82129 38.8236V5.99976Z" stroke="#050026" stroke-opacity="0.6"/>
<path d="M383.009 53L377.069 55H444.104L439.012 53H383.009Z" fill="#050026"/>
<path d="M47.8362 5L41.8965 3H108.931L103.84 5H47.8362Z" fill="#050026"/>
<defs>
<linearGradient id="paint0_linear_412_859" x1="152.743" y1="-18.4545" x2="493.71" y2="207.621" gradientUnits="userSpaceOnUse">
<stop stop-color="#DCFFFE"/>
<stop offset="1" stop-color="#FFFFB3"/>
</linearGradient>
</defs>
</svg>
