<svg width="32" height="32" viewBox="0 0 32 32" fill="none" xmlns="http://www.w3.org/2000/svg">
<circle cx="16" cy="16" r="16" fill="#56A9DA"/>
<path d="M20.2811 21.2996L22.1641 11.5501C22.2409 11.1375 22.1961 10.842 22.0296 10.6638C21.8631 10.4856 21.6432 10.4528 21.3699 10.5653L10.3028 15.2502C10.0551 15.3534 9.88645 15.4706 9.79679 15.6019C9.70713 15.7332 9.69646 15.8575 9.76478 15.9747C9.8331 16.0919 9.96973 16.1834 10.1747 16.249L13.0055 17.2198L19.5766 12.6756C19.7559 12.5443 19.8926 12.5162 19.9865 12.5912C20.0463 12.6381 20.0292 12.7084 19.9353 12.8022L14.6194 18.078L14.4145 21.2856C14.6109 21.2856 14.803 21.1824 14.9909 20.9761L16.3743 19.5129L19.2436 21.8342C19.7901 22.1719 20.1359 21.9937 20.2811 21.2996Z" fill="white"/>
</svg>
