<svg width="32" height="32" viewBox="0 0 32 32" fill="none" xmlns="http://www.w3.org/2000/svg">
<circle cx="16" cy="16" r="16" fill="#479DE9"/>
<path d="M21.5434 13.7505V13.3537C22.1098 12.9575 22.5952 12.4027 23 11.8478C22.5147 12.0858 21.9482 12.2445 21.3813 12.3233C21.9482 12.0065 22.4336 11.3723 22.6763 10.738C22.1098 11.0549 21.5434 11.2929 20.8959 11.451C20.4106 10.8962 19.6009 10.5 18.7918 10.5C17.1737 10.5 15.9598 11.7684 15.9598 13.4336C15.9598 13.6711 15.9598 13.9092 16.0403 14.1466C13.6935 13.9885 11.5894 12.7994 10.1328 10.9755C9.72858 11.2929 9.567 11.769 9.567 12.3233C9.567 13.3543 10.0518 14.3053 10.8614 14.8608C10.3755 14.8608 9.97125 14.7021 9.56642 14.464C9.56642 15.8912 10.5377 17.1596 11.8327 17.3977C11.5894 17.477 11.3468 17.477 11.1035 17.477C10.9419 17.477 10.7803 17.477 10.5377 17.3977C10.8614 18.5868 11.9943 19.459 13.2082 19.459C12.2105 20.2831 10.9491 20.7325 9.6475 20.7275C9.40483 20.7275 9.16158 20.7275 9 20.6481C10.295 21.5204 11.7516 21.9959 13.3698 21.9959C18.6302 22.1546 21.5434 17.6352 21.5434 13.7505Z" fill="white"/>
</svg>
