<svg width="32" height="32" viewBox="0 0 32 32" fill="none" xmlns="http://www.w3.org/2000/svg">
<circle cx="16" cy="16" r="16" fill="#EB1D1D"/>
<path d="M22.7078 13.2932C22.5469 12.6901 22.0719 12.2151 21.4703 12.0541C20.3781 11.7604 16 11.7604 16 11.7604C16 11.7604 11.6219 11.7604 10.5297 12.0526C9.92656 12.2135 9.45312 12.6885 9.29219 13.2916C9 14.3854 9 16.6666 9 16.6666C9 16.6666 9 18.9479 9.29219 20.0401C9.45312 20.6432 9.92812 21.1182 10.5297 21.2791C11.6219 21.5729 16 21.5729 16 21.5729C16 21.5729 20.3781 21.5729 21.4703 21.2791C22.0734 21.1182 22.5469 20.6432 22.7078 20.0401C23 18.9479 23 16.6666 23 16.6666C23 16.6666 23 14.3854 22.7078 13.2932ZM14.6094 18.7604V14.5729L18.2344 16.651L14.6094 18.7604Z" fill="white"/>
</svg>
